<svg width="512" height="512" viewBox="0 0 512 512" fill="none" xmlns="http://www.w3.org/2000/svg">
<rect width="512" height="512" rx="128" fill="#4EA16B"/>
<rect x="100" y="220" width="79" height="79" rx="24" fill="white" fill-opacity="0.9"/>
<rect x="100" y="315" width="79" height="79" rx="39.5" fill="white" fill-opacity="0.9"/>
<rect x="96" y="118" width="320" height="86" rx="30" fill="white"/>
<path fill-rule="evenodd" clip-rule="evenodd" d="M250.829 235.577C249.606 235.736 248.427 236.135 247.359 236.752C246.281 237.36 245.334 238.175 244.574 239.152C243.813 240.129 243.254 241.247 242.929 242.442C242.604 243.637 242.518 244.884 242.679 246.112C242.839 247.341 243.241 248.524 243.862 249.596L260.34 278.47C232.519 295.058 214 324.376 214 357.705C214 359.809 214.074 361.925 214.22 363.997C214.798 372.166 221.607 378.5 229.813 378.5H396.187C404.497 378.5 411.294 372.019 411.789 363.849C411.929 361.822 412 359.756 412 357.705C412 324.376 393.48 295.058 365.66 278.47L382.138 249.596C382.759 248.524 383.161 247.341 383.321 246.112C383.482 244.884 383.396 243.637 383.071 242.442C382.746 241.247 382.187 240.129 381.426 239.152C380.666 238.175 379.719 237.36 378.641 236.752C377.573 236.135 376.394 235.736 375.171 235.577C373.948 235.419 372.706 235.504 371.517 235.829C370.327 236.154 369.213 236.711 368.24 237.468C367.266 238.226 366.452 239.169 365.845 240.244L348.649 270.375C337.583 266.323 325.561 264.1 313.001 264.1C300.44 264.1 288.417 266.323 277.351 270.376L260.155 240.244C259.547 239.169 258.734 238.226 257.76 237.468C256.787 236.711 255.673 236.154 254.483 235.829C253.294 235.504 252.052 235.419 250.829 235.577ZM286.6 328.45C286.6 334.221 281.921 338.9 276.15 338.9C270.379 338.9 265.7 334.221 265.7 328.45C265.7 322.679 270.379 318 276.15 318C281.921 318 286.6 322.679 286.6 328.45ZM349.85 338.9C355.621 338.9 360.3 334.221 360.3 328.45C360.3 322.679 355.621 318 349.85 318C344.079 318 339.4 322.679 339.4 328.45C339.4 334.221 344.079 338.9 349.85 338.9Z" fill="white"/>
<path d="M149.849 146.129C148.678 144.957 146.778 144.957 145.607 146.129L132.879 158.857C132.289 159.446 131.996 160.22 132 160.993C131.996 161.765 132.289 162.539 132.879 163.129L145.607 175.857C146.778 177.028 148.678 177.028 149.849 175.857C151.021 174.685 151.021 172.786 149.849 171.614L139.228 160.993L149.849 150.371C151.021 149.2 151.021 147.3 149.849 146.129Z" fill="#4EA16B"/>
<path d="M138.757 160.995C138.757 159.338 140.101 157.995 141.757 157.995H183.757C185.414 157.995 186.757 159.338 186.757 160.995C186.757 162.652 185.414 163.995 183.757 163.995H141.757C140.101 163.995 138.757 162.652 138.757 160.995Z" fill="#4EA16B"/>
<path d="M362.151 146.129C363.322 144.957 365.222 144.957 366.393 146.129L379.121 158.857C379.711 159.446 380.004 160.22 380 160.993C380.004 161.765 379.711 162.539 379.121 163.129L366.393 175.857C365.222 177.028 363.322 177.028 362.151 175.857C360.979 174.685 360.979 172.786 362.151 171.614L372.772 160.993L362.151 150.371C360.979 149.2 360.979 147.3 362.151 146.129Z" fill="#4EA16B"/>
<path d="M373.243 160.995C373.243 159.338 371.9 157.995 370.243 157.995H328.243C326.586 157.995 325.243 159.338 325.243 160.995C325.243 162.652 326.586 163.995 328.243 163.995H370.243C371.9 163.995 373.243 162.652 373.243 160.995Z" fill="#4EA16B"/>
</svg>
